<svg xmlns="http://www.w3.org/2000/svg" version="1.1" xmlns:xlink="http://www.w3.org/1999/xlink" xmlns:svgjs="http://svgjs.dev/svgjs" width="100%" height="100%" viewBox="0 0 1000 600"><rect width="1000" height="600" x="0" y="0" fill="#ffffff"/><g><rect width="333.3333333333333" height="333.3333333333333" rx="13.333333333333334" ry="13.333333333333334" y="191.4287941059321" fill="#00000" transform="matrix(0.7387419407510688,0,0,0.7387419407510686,0,35.45985289061041)" x="169.2065887451172"/><path d="M276.1389861843519 283.095460537994L230.11561760545024 342.9145317375984L282.83894831776695 431.0600251215144L259.4314856744435 431.0600251215144L219.93845993444006 360.4418588376715L218.5249658134664 356.76677412313995L216.6874234562007 360.4418588376715L200.60186035952069 381.58773088743703Q199.18836623854705 378.534583586134 198.87739753193284 374.3789108704715Q198.56642882531867 370.1949682723896 199.30144576822494 365.5304376731766Q200.00819282871177 360.8376371915441 201.8457351859775 356.1448367099116Q203.65500766082374 351.4803061106986 206.7081549621268 347.21155386535816L206.7081549621268 347.21155386535816L254.1450176620021 283.095460537994L276.1389861843519 283.095460537994ZM189.83103515770156 431.0600251215144L170.49443558278222 431.0600251215144L170.49443558278222 283.095460537994L189.83103515770156 283.095460537994L189.83103515770156 431.0600251215144ZM341.866462809626 366.5481534402776L367.73340522344364 366.5481534402776Q368.3270727542525 360.6397480146078 366.9135786332789 355.55116917910266Q365.4718146298858 350.4625903435975 362.5317468582606 346.5896164521298Q359.59167908663545 342.7166425606621 355.29465695887563 340.59640137920155Q351.02590471353517 338.4478903153216 346.13521505496647 338.4478903153216L346.13521505496647 338.4478903153216Q333.3289583189453 338.4478903153216 325.2720418293955 348.6250479863319Q317.24339522226524 358.80220565734203 317.24339522226524 377.74302687838883L317.24339522226524 377.74302687838883Q317.24339522226524 386.902468782298 319.67460511033994 394.30917797619986Q322.13408488083405 401.74415705252113 326.5159166558524 407.14370459464044Q330.8694785484512 412.54325213675975 336.777883974121 415.48331990838494Q342.6862893997907 418.45165756242955 349.61241059256156 418.45165756242955L349.61241059256156 418.45165756242955Q356.73642096226877 418.45165756242955 362.9275252121332 417.0098935590364Q369.1468993444173 415.5963994380628 377.91056289445385 411.1014881333666L377.91056289445385 411.1014881333666L382.99914172995886 424.55795216503566Q373.21776241282134 429.6465310005408 364.0583205089122 431.3709938281286Q354.898878605003 433.0954566557165 347.57697905835954 433.0954566557165L347.57697905835954 433.0954566557165Q336.38210562024835 433.0954566557165 327.2226637163392 428.91151405763446Q318.06322181243 424.755841341972 311.64595850320967 417.3208622656507Q305.2286951939893 409.8858831893293 301.7797695388137 399.70872551831906Q298.30257400121855 389.5315678473089 298.30257400121855 377.516867819033L298.30257400121855 377.516867819033Q298.30257400121855 365.10638943688446 301.7797695388137 355.2402004724885Q305.2286951939893 345.3740115080925 311.7590380328876 338.33481078564375Q318.2611109893663 331.3238799456145 327.4205528932755 327.56398558382466Q336.57999479718467 323.8040912220348 348.1706465891685 323.8040912220348L348.1706465891685 323.8040912220348Q358.5739633195344 323.8040912220348 366.7156894563426 328.4686218212478Q374.8574155931508 333.1614223028803 379.7198353693001 340.9921797330742Q384.6105250278689 348.8229371632682 385.74132032464775 359.00009483427834Q386.8438457390072 369.1772525052885 383.5928092607678 380.1742367664634L383.5928092607678 380.1742367664634L324.56529476890876 380.1742367664634Q326.7986154800471 374.2658313407936 330.67158937151487 370.3928574493259Q334.5445632629826 366.5481534402776 341.866462809626 366.5481534402776L341.866462809626 366.5481534402776ZM411.89096156266004 325.83952275623676L426.5347606559469 325.83952275623676Q431.42545031451573 331.3238799456145 432.9520239651672 336.72342748773383Q434.4785976158188 342.12297502985314 434.4785976158188 348.22926963245925L434.4785976158188 348.22926963245925L434.4785976158188 431.0600251215144L414.9441088639631 431.0600251215144L414.9441088639631 351.4803061106986Q414.9441088639631 345.76978986196514 414.2373618034763 339.35252655274473Q413.5306147429895 332.96353312594397 411.89096156266004 325.83952275623676L411.89096156266004 325.83952275623676ZM481.71757113875776 431.0600251215144L481.71757113875776 354.5334534120017Q481.71757113875776 347.40944304229447 478.55134430777673 342.9145317375984Q475.3851174767958 338.4478903153216 469.0809336972534 338.4478903153216L469.0809336972534 338.4478903153216Q466.6497238091788 338.4478903153216 464.81218145191303 338.9567481988722Q462.9746390946473 339.4656060824227 460.34554002963637 340.08754349565106L460.34554002963637 340.08754349565106Q454.43713460396657 341.50103761662467 449.34855576846144 340.2854326725874Q444.2599769329563 339.0698277285501 439.99122468761595 334.5749164238539L439.99122468761595 334.5749164238539Q450.76204988943505 328.27073264431147 458.08394943607857 326.0374119331731Q465.4341188651414 323.8040912220348 470.91847605451915 323.8040912220348L470.91847605451915 323.8040912220348Q477.02477065712526 323.8040912220348 482.509127846503 325.33066487268627Q488.0217549183002 326.85723852333786 492.1774276339627 330.70194253238617Q496.3613702320446 334.5749164238539 498.7925801201193 340.8791002033963Q501.2520598906134 347.21155386535816 501.2520598906134 356.56888494620364L501.2520598906134 356.56888494620364L501.2520598906134 431.0600251215144L481.71757113875776 431.0600251215144Z " fill="#ffffff" transform="matrix(0.7387419407510688,0,0,0.7387419407510686,0,35.45985289061041)"/><path d="M585.8732502955914 394.7540826346874L598.2915976789864 283.26586616009183L617.1640775789657 283.26586616009183L647.0703549825446 372.8142922317769L648.135393351618 377.58566412522543L649.2004317206913 372.8142922317769L679.1067091242703 283.26586616009183L697.9791890242496 283.26586616009183L710.2484310359742 394.7540826346874L696.2964284011138 394.7540826346874L687.5418130073309 305.50386730634284L687.0944968923201 298.9006294180882L685.2413301301325 305.50386730634284L654.8877366115428 393.2204273832218L641.2339447200228 393.2204273832218L610.7099450623814 305.3334611672911L608.728973695905 298.9006294180882L608.2603568135128 305.3334611672911L599.6761475587816 394.7540826346874L585.8732502955914 394.7540826346874ZM782.1811224831866 365.61463285684124L770.0609858431322 394.7540826346874L755.491260954209 394.7540826346874L727.4168495454363 315.47262644086913L742.7534020600921 315.47262644086913L762.3927095858043 377.2661526145034L763.4577479548776 381.1002907431674L764.5440870913322 377.2661526145034L778.496089726193 339.84070432526676Q780.1788503493286 341.69387108745434 781.4781971595982 344.6120762187153Q782.7988447372492 347.50898058259475 783.3313639217857 350.95970489839226Q783.8638831063223 354.4104292141899 783.6295746651264 358.1806650407094Q783.3952662239302 361.92960009984756 782.1811224831866 365.61463285684124L782.1811224831866 365.61463285684124ZM821.5875421388995 394.7540826346874L806.2509896242437 394.7540826346874L778.3469843545225 315.47262644086913L793.6835368691785 315.47262644086913L813.3015436275092 377.2661526145034L814.3878827639638 381.1002907431674L815.4529211330372 377.2661526145034L834.943123287079 315.47262644086913L849.5128481760022 315.47262644086913L821.5875421388995 394.7540826346874ZM922.1910664815658 346.5930475851917L922.1910664815658 368.5328379881022Q922.1910664815658 377.73476949689564 922.8939918051541 384.2528043156244Q923.5756163613611 390.7708391343532 924.6619554978159 394.7540826346874L924.6619554978159 394.7540826346874L914.2245794808972 394.7540826346874Q912.0732019753692 393.51863812656234 910.8590582346256 391.4524636905601Q909.6236137265006 389.3862892545578 908.7076807290974 386.9367010056892L908.7076807290974 386.9367010056892L908.5585753574272 384.16760124609857L906.8545139669098 386.9367010056892Q901.0394044717697 392.7518105008296 896.0550249045065 394.51977419349123Q891.0706453372433 396.28773788615297 885.5537465854435 396.28773788615297L885.5537465854435 396.28773788615297Q879.5682309512514 396.28773788615297 874.8181598251844 394.6049772630172Q870.0467879317358 392.9222166398813 866.6812666854643 390.00401150862035Q863.3157454391925 387.0858063773595 861.5477817465306 383.1025628770252Q859.779818053869 379.119319376691 859.779818053869 374.5183536222943L859.779818053869 374.5183536222943Q859.779818053869 368.6819433597724 861.9950978615415 364.3791883487162Q864.2316784365954 360.09773410504147 869.2160580038586 357.0304236021103Q874.2004375711218 353.96311309917905 882.3160299434604 351.8969386631768Q890.4529230831807 349.80946345979316 902.2535482125132 348.4462143473793L902.2535482125132 348.4462143473793Q901.9553374691726 349.80946345979316 901.422818284636 351.66263022198075Q900.8902991000992 353.49449621678684 899.5696515224485 355.2624599094486Q898.2703047121789 357.0304236021103 896.2893333457024 358.4149734819056Q894.2870612118446 359.77822259431946 891.2197507089135 360.24683947671167L891.2197507089135 360.24683947671167Q886.1501680721245 361.0136671024445 883.0189552670489 362.3982169822398Q879.866441694592 363.78276686203515 878.0345756997857 365.5294297873154Q876.1814089375981 367.29739347997713 875.5849874509171 369.3635679159794Q874.9672651968546 371.451043119363 874.9672651968546 373.58111985750975L874.9672651968546 373.58111985750975Q874.9672651968546 378.35249175095817 878.3327864431263 381.8032160667558Q881.7196084567796 385.2539403825533 887.5347179519198 385.2539403825533L887.5347179519198 385.2539403825533Q892.7534059603792 385.2539403825533 898.0359962709828 382.633945994633Q903.3398873489679 380.03525237409406 907.7917477316945 374.1988421115723L907.7917477316945 374.1988421115723L907.7917477316945 345.52800921611833Q907.7917477316945 336.4751830789951 903.3398873489679 330.72397588599915Q898.8880269662415 324.9727686930032 888.450650949323 324.9727686930032L888.450650949323 324.9727686930032Q884.3183020773184 324.9727686930032 880.2498555074582 325.8247993882619Q876.1814089375981 326.6555293161391 870.6645101857983 328.6578014499969L870.6645101857983 328.6578014499969L867.1498835678564 319.13635843048144Q874.6477536861327 315.91994255587997 880.3989608791286 314.9188064889511Q886.1501680721245 313.93897118940356 891.2197507089135 313.93897118940356L891.2197507089135 313.93897118940356Q906.0876863411771 313.93897118940356 914.1393764113715 322.43797737460864Q922.1910664815658 330.9582843271953 922.1910664815658 346.5930475851917L922.1910664815658 346.5930475851917ZM944.2799622561464 315.47262644086913L955.3350605271277 315.47262644086913Q958.9987925167399 319.60497531287365 960.1490339553392 323.6734218827338Q961.2992753939383 327.74186845259385 961.2992753939383 332.3428342069906L961.2992753939383 332.3428342069906L961.2992753939383 394.7540826346874L946.5804451333448 394.7540826346874L946.5804451333448 334.7924224558592Q946.5804451333448 330.489667444803 946.0479259488083 325.6543932492101Q945.5154067642717 320.8404198209987 944.2799622561464 315.47262644086913L944.2799622561464 315.47262644086913ZM996.8928576883687 394.7540826346874L996.8928576883687 337.0929053330576Q996.8928576883687 331.72511195292805 994.5071717416446 328.3382899392749Q992.1427865623017 324.9727686930032 987.3714146688532 324.9727686930032L987.3714146688532 324.9727686930032Q985.5395486740471 324.9727686930032 984.1549987942518 325.3561825058696Q982.7704489144566 325.73959631873595 980.78947754798 326.2082132011283L980.78947754798 326.2082132011283Q976.3376171652536 327.27325157020164 972.5034790365895 326.3573185727985Q968.6693409079256 325.44138557539543 965.4529250333243 322.05456356174227L965.4529250333243 322.05456356174227Q973.5685174056629 317.30449243567523 979.1067169248444 315.62173181253945Q984.6236156766441 313.93897118940356 988.7559645486486 313.93897118940356L988.7559645486486 313.93897118940356Q993.3569303030453 313.93897118940356 997.5105799424313 315.08921262800277Q1001.6429288144358 316.239454066602 1004.7954423868929 319.13635843048144Q1007.9266551919685 322.05456356174227 1009.7798219541559 326.8046346878093Q1011.6116879489622 331.57600658125784 1011.6116879489622 338.6265605845232L1011.6116879489622 338.6265605845232L1011.6116879489622 394.7540826346874L996.8928576883687 394.7540826346874ZM1033.2319668411506 355.49676835064463L1033.2319668411506 355.49676835064463Q1033.2319668411506 346.14573147018086 1036.2353750419375 338.477455212853Q1039.2174824753429 330.809178955525 1044.670478924998 325.3561825058696Q1050.102174607272 319.90318605621417 1057.5361424234038 316.92107862280886Q1064.9914110069171 313.93897118940356 1073.8738310049885 313.93897118940356L1073.8738310049885 313.93897118940356Q1080.327963521573 313.93897118940356 1086.6755922012499 315.08921262800277Q1093.0445216483085 316.239454066602 1101.0323094163582 318.8381476871408L1101.0323094163582 318.8381476871408L1101.0323094163582 394.7540826346874Q1101.0323094163582 403.33829188941843 1098.4975180979636 410.3888458926838Q1095.9627267795695 417.4607006633307 1091.2126556535022 422.5089825327383Q1086.4625845274354 427.5785651695272 1079.7741435696548 430.3263641617365Q1073.1070033792557 433.0954639213271 1064.6718994961952 433.0954639213271L1064.6718994961952 433.0954639213271Q1058.686383862003 433.0954639213271 1051.6358298587375 431.86001941320205Q1044.585275855472 430.6458756724585 1036.9169995981442 426.6626321721242L1036.9169995981442 426.6626321721242L1040.9002430984783 416.22525615520567Q1047.503480986733 419.441672029807 1053.020379738533 420.74101884007655Q1058.537278490333 422.06166641772745 1063.4577557554517 422.06166641772745L1063.4577557554517 422.06166641772745Q1068.2078268815185 422.06166641772745 1072.4892811251934 420.5280111662619Q1076.7920361362494 418.9943559147963 1080.0084520108508 415.8418423423392Q1083.2248678854526 412.6893287698822 1085.1419369497844 407.8753553416708Q1087.0590060141162 403.0400811460779 1087.0590060141162 396.4368432578233L1087.0590060141162 396.4368432578233L1087.0590060141162 326.6555293161391Q1083.5443793961745 325.73959631873595 1080.477068893243 325.3561825058696Q1077.4097583903122 324.9727686930032 1073.8738310049885 324.9727686930032L1073.8738310049885 324.9727686930032Q1062.3714166189966 324.9727686930032 1055.3208626157311 332.7901503220014Q1048.2703086124661 340.6075319509996 1048.2703086124661 355.49676835064463L1048.2703086124661 355.49676835064463Q1048.2703086124661 361.92960009984756 1049.5696554227352 367.5317019211733Q1050.8690022330047 373.1338037424989 1053.5528989230697 377.03184417330726Q1056.2367956131343 380.9511853714971 1060.1561368113244 382.953457505355Q1064.0541772421325 384.9344288718314 1069.421970622262 384.3167066177689L1069.421970622262 384.3167066177689Q1072.8087926359153 384.01849587442825 1075.9400054409907 385.2539403825533Q1079.092519013448 386.468084123297 1081.8616187730386 390.00401150862035L1081.8616187730386 390.00401150862035Q1078.0274806443745 392.6027051291593 1074.022936376659 393.98725500895466Q1070.0396928763248 395.3718048887499 1066.5250662583826 395.67001563209044L1066.5250662583826 395.67001563209044Q1059.6236176267876 396.28773788615297 1053.5528989230697 393.6038411960882Q1047.503480986733 390.9199445060234 1042.9664175344806 385.55215112589394Q1038.4506548496097 380.1843577457644 1035.851961229071 372.5160814884364Q1033.2319668411506 364.8478052311085 1033.2319668411506 355.49676835064463ZM1139.5227960746683 394.7540826346874L1124.8039658140751 394.7540826346874L1124.8039658140751 315.47262644086913L1139.5227960746683 315.47262644086913L1139.5227960746683 394.7540826346874ZM1122.9507990518873 292.46779766888534L1122.9507990518873 292.46779766888534Q1122.9507990518873 288.46325340116965 1125.5707934398079 285.77935671110487Q1128.1694870603465 283.0954600210401 1132.152730560681 283.0954600210401L1132.152730560681 283.0954600210401Q1136.135974061015 283.0954600210401 1138.7559684489356 285.77935671110487Q1141.3546620694742 288.46325340116965 1141.3546620694742 292.46779766888534L1141.3546620694742 292.46779766888534Q1141.3546620694742 296.4510411692196 1138.7559684489356 299.0497347897585Q1136.135974061015 301.66972917767885 1132.152730560681 301.66972917767885L1132.152730560681 301.66972917767885Q1128.1694870603465 301.66972917767885 1125.5707934398079 299.0497347897585Q1122.9507990518873 296.4510411692196 1122.9507990518873 292.46779766888534ZM1166.0422514645938 388.00173937476256L1166.0422514645938 388.00173937476256Q1166.0422514645938 384.01849587442825 1168.5770427829884 381.3345991843636Q1171.111834101383 378.6507024942988 1175.095077601717 378.6507024942988L1175.095077601717 378.6507024942988Q1179.0783211020516 378.6507024942988 1181.7622177921162 381.3345991843636Q1184.4461144821812 384.01849587442825 1184.4461144821812 388.00173937476256L1184.4461144821812 388.00173937476256Q1184.4461144821812 391.98498287509676 1181.7622177921162 394.51977419349123Q1179.0783211020516 397.0545655118858 1175.095077601717 397.0545655118858L1175.095077601717 397.0545655118858Q1171.111834101383 397.0545655118858 1168.5770427829884 394.51977419349123Q1166.0422514645938 391.98498287509676 1166.0422514645938 388.00173937476256Z " fill="#00000" transform="matrix(0.7387419407510688,0,0,0.7387419407510686,0,35.45985289061041)"/></g></svg>